<svg width="19" height="29" viewBox="0 0 19 29" fill="none" xmlns="http://www.w3.org/2000/svg">
<ellipse cx="9.50007" cy="14.5" rx="9.50001" ry="9.5" fill="#F63D13"/>
<path d="M6.83912 19V18.0455L9.79225 14.9858C10.1076 14.6534 10.3675 14.3622 10.5721 14.1122C10.7795 13.8594 10.9343 13.6193 11.0366 13.392C11.1388 13.1648 11.19 12.9233 11.19 12.6676C11.19 12.3778 11.1218 12.1278 10.9854 11.9176C10.8491 11.7045 10.663 11.5412 10.4272 11.4276C10.1914 11.3111 9.92577 11.2528 9.63032 11.2528C9.31782 11.2528 9.04509 11.3168 8.81213 11.4446C8.57918 11.5724 8.4002 11.7528 8.2752 11.9858C8.1502 12.2187 8.0877 12.4915 8.0877 12.804H6.8306C6.8306 12.2727 6.95276 11.8082 7.19708 11.4105C7.4414 11.0128 7.77662 10.7045 8.20276 10.4858C8.6289 10.2642 9.11327 10.1534 9.65588 10.1534C10.2042 10.1534 10.6871 10.2628 11.1047 10.4815C11.5252 10.6974 11.8533 10.9929 12.0891 11.3679C12.3249 11.7401 12.4428 12.1605 12.4428 12.6293C12.4428 12.9531 12.3817 13.2699 12.2596 13.5795C12.1403 13.8892 11.9315 14.2344 11.6332 14.6151C11.3349 14.9929 10.9201 15.4517 10.3888 15.9915L8.65446 17.8068V17.8707H12.5834V19H6.83912Z" fill="white"/>
</svg>
