<svg width="17" height="14" viewBox="0 0 17 14" fill="none" xmlns="http://www.w3.org/2000/svg">
<path fill-rule="evenodd" clip-rule="evenodd" d="M14.5817 1.83145C14.9863 1.42498 15.5965 1.30351 16.1259 1.52403C16.6551 1.74347 17.0001 2.26009 17 2.83303V10.3314C16.9976 12.2865 15.4133 13.8708 13.4583 13.8731H3.54162C1.58658 13.8708 0.00229606 12.2865 -4.57764e-05 10.3314V2.83303C7.65501e-05 2.26014 0.345235 1.74371 0.874527 1.52449C1.40382 1.30527 2.01305 1.42641 2.41821 1.83145L4.24996 3.6632L7.49838 0.414781C8.05158 -0.13826 8.94833 -0.13826 9.50154 0.414781L12.75 3.6632L14.5817 1.83145ZM13.4584 12.4564C14.632 12.4564 15.5834 11.505 15.5834 10.3314V2.83302L13.2508 5.16556C12.9742 5.44208 12.5259 5.44208 12.2493 5.16556L8.50004 1.41635L4.75083 5.16556C4.47423 5.44208 4.02586 5.44208 3.74925 5.16556L1.41671 2.83302V10.3314C1.41671 11.505 2.3681 12.4564 3.54171 12.4564H13.4584Z" fill="#787686"/>
</svg>
