<svg width="17" height="17" viewBox="0 0 17 17" fill="none" xmlns="http://www.w3.org/2000/svg">
<path d="M4.95824 15.583H3.5416C2.36802 15.583 1.41664 14.6316 1.41664 13.4581V3.5416C1.41664 2.36801 2.36802 1.41664 3.5416 1.41664H4.95824C5.34943 1.41664 5.66656 1.09951 5.66656 0.708319C5.66656 0.317125 5.34943 8.2438e-09 4.95824 0H3.5416C1.5866 0.00234179 0.00234179 1.5866 0 3.5416V13.4581C0.00234179 15.4131 1.5866 16.9973 3.5416 16.9997H4.95824C5.34943 16.9997 5.66656 16.6825 5.66656 16.2913C5.66656 15.9002 5.34943 15.583 4.95824 15.583Z" fill="#4B0ACE"/>
<path d="M13.1309 13.2505L16.3799 10.0022C17.2068 9.17125 17.2068 7.8284 16.3799 6.99748L13.1309 3.74913C12.853 3.48069 12.4112 3.48453 12.1379 3.75776C11.8647 4.03098 11.8609 4.47276 12.1293 4.75069L15.1694 7.79151H4.24998C3.85878 7.79151 3.54166 8.10863 3.54166 8.49983C3.54166 8.89102 3.85878 9.20814 4.24998 9.20814H15.1701L12.1293 12.249C11.9452 12.4268 11.8713 12.6902 11.9362 12.9378C12.001 13.1855 12.1944 13.3789 12.442 13.4437C12.6897 13.5085 12.953 13.4347 13.1309 13.2505Z" fill="#4B0ACE"/>
</svg>
