<svg width="17" height="16" viewBox="0 0 17 16" fill="none" xmlns="http://www.w3.org/2000/svg">
<path fill-rule="evenodd" clip-rule="evenodd" d="M13.4583 0H3.54162C1.58658 0.00234183 0.00229606 1.58663 -4.57764e-05 3.54167V9.20833C0.00229606 11.1634 1.58658 12.7477 3.54162 12.75H7.79163V14.1667H4.95829C4.56709 14.1667 4.24996 14.4838 4.24996 14.875C4.24996 15.2662 4.56709 15.5833 4.95829 15.5833H12.0416C12.4328 15.5833 12.75 15.2662 12.75 14.875C12.75 14.4838 12.4328 14.1667 12.0416 14.1667H9.20829V12.75H13.4583C15.4133 12.7477 16.9976 11.1634 17 9.20833V3.54167C16.9976 1.58663 15.4133 0.00234183 13.4583 0ZM3.54171 1.41666H13.4584C14.632 1.41666 15.5834 2.36805 15.5834 3.54166V8.49999H1.41671V3.54166C1.41671 2.36805 2.3681 1.41666 3.54171 1.41666ZM3.54172 11.3333H13.4584C14.3557 11.3296 15.154 10.7627 15.4531 9.91666H1.54705C1.84615 10.7627 2.64441 11.3296 3.54172 11.3333Z" fill="#787686"/>
</svg>
