<svg width="17" height="17" viewBox="0 0 17 17" fill="none" xmlns="http://www.w3.org/2000/svg">
<path fill-rule="evenodd" clip-rule="evenodd" d="M12.3956 6.375C10.6351 6.375 9.20805 4.94791 9.20805 3.1875C9.20805 1.42709 10.6351 0 12.3956 0C14.156 0 15.5831 1.42709 15.5831 3.1875C15.5811 4.9471 14.1552 6.37305 12.3956 6.375ZM2.125 6.02084C2.125 7.78125 3.55209 9.20834 5.3125 9.20834C7.0721 9.20639 8.49805 7.78044 8.5 6.02084C8.5 4.26044 7.07291 2.83334 5.3125 2.83334C3.55209 2.83334 2.125 4.26044 2.125 6.02084ZM3.54153 6.02083C3.54153 5.04283 4.33436 4.25 5.31236 4.25C5.78201 4.25 6.23243 4.43657 6.56453 4.76867C6.89662 5.10076 7.08319 5.55118 7.08319 6.02083C7.08319 6.99884 6.29036 7.79167 5.31236 7.79167C4.33436 7.79167 3.54153 6.99884 3.54153 6.02083ZM10.6249 16.2917V15.9375C10.6249 13.0035 8.24646 10.625 5.31245 10.625C2.37844 10.625 -4.57764e-05 13.0035 -4.57764e-05 15.9375V16.2917C-4.57764e-05 16.6829 0.317086 17 0.708287 17C1.09949 17 1.41662 16.6829 1.41662 16.2917V15.9375C1.41662 13.7859 3.16084 12.0417 5.31245 12.0417C7.46406 12.0417 9.20828 13.7859 9.20828 15.9375V16.2917C9.20828 16.6829 9.52541 17 9.91661 17C10.3078 17 10.6249 16.6829 10.6249 16.2917ZM14.0657 8.22373C15.8507 9.02192 16.9999 10.7946 17 12.75C17 13.1412 16.6829 13.4583 16.2917 13.4583C15.9005 13.4583 15.5833 13.1412 15.5833 12.75C15.5833 11.3534 14.7626 10.0872 13.4877 9.51703C12.2128 8.94682 10.7218 9.17908 9.68079 10.11C9.49267 10.2816 9.22692 10.3391 8.98473 10.2604C8.74254 10.1818 8.56119 9.97926 8.50972 9.72989C8.45826 9.48051 8.5446 9.22271 8.73587 9.05463C10.1932 7.75096 12.2807 7.42554 14.0657 8.22373ZM10.6248 3.18749C10.6248 2.20949 11.4177 1.41666 12.3957 1.41666C12.8653 1.41666 13.3157 1.60323 13.6478 1.93532C13.9799 2.26742 14.1665 2.71784 14.1665 3.18749C14.1665 4.16549 13.3737 4.95832 12.3957 4.95832C11.4177 4.95832 10.6248 4.16549 10.6248 3.18749Z" fill="#787686"/>
</svg>
