<svg width="17" height="17" viewBox="0 0 17 17" fill="none" xmlns="http://www.w3.org/2000/svg">
<path fill-rule="evenodd" clip-rule="evenodd" d="M14.7078 4.51849C15.7005 4.50783 16.5831 5.1484 16.8806 6.0955C17.1994 7.03557 16.8646 8.07346 16.0567 8.65016L13.5346 10.4921L14.4924 13.4584C14.7972 14.4025 14.4583 15.4355 13.6535 16.0156C12.8486 16.5956 11.7614 16.5903 10.9622 16.0024L8.4954 14.1895L6.02929 16.0046C5.23381 16.6044 4.13863 16.6099 3.33719 16.018C2.52176 15.4446 2.1805 14.4032 2.49838 13.4584L3.45621 10.4921L0.936963 8.65016C0.138942 8.06671 -0.193665 7.03642 0.112557 6.09648C0.418779 5.15654 1.29445 4.5199 2.28302 4.51849H5.37823L6.31834 1.58835C6.62167 0.641999 7.50163 0 8.4954 0C9.48918 0 10.3691 0.641999 10.6725 1.58835L11.6126 4.51849H14.7078ZM12.2851 9.65193L15.2209 7.50604H15.2224C15.5256 7.28398 15.6518 6.89214 15.5351 6.53482C15.4185 6.17751 15.0853 5.93567 14.7094 5.93541H11.0964C10.7886 5.9354 10.5161 5.73672 10.4219 5.44374L9.32382 2.02123C9.20817 1.6619 8.87383 1.41827 8.49635 1.41827C8.11887 1.41827 7.78453 1.6619 7.66888 2.02123L6.57079 5.44374C6.47662 5.73672 6.20408 5.9354 5.89634 5.93541H2.28326C1.90737 5.93567 1.57424 6.17751 1.45755 6.53482C1.34087 6.89214 1.46706 7.28398 1.77034 7.50604L4.70615 9.65193C4.9535 9.83237 5.05695 10.1513 4.96261 10.4426L3.84326 13.8927C3.72538 14.2529 3.85444 14.6479 4.16223 14.869C4.47001 15.0902 4.88559 15.0864 5.18931 14.8597L8.07624 12.7344C8.32579 12.5511 8.66549 12.5511 8.91504 12.7344L11.802 14.8597C12.1058 15.0833 12.5192 15.0854 12.8253 14.865C13.1314 14.6445 13.2603 14.2517 13.1445 13.8927L12.0287 10.4426C11.9343 10.1513 12.0378 9.83237 12.2851 9.65193Z" fill="#787686"/>
</svg>
