<svg width="17" height="18" viewBox="0 0 17 18" fill="none" xmlns="http://www.w3.org/2000/svg">
<path fill-rule="evenodd" clip-rule="evenodd" d="M10.144 4.2542H13.4583C15.4133 4.25654 16.9976 5.84083 17 7.79587V14.8792C17 16.0528 16.0486 17.0042 14.875 17.0042H2.12496C0.95135 17.0042 -4.57764e-05 16.0528 -4.57764e-05 14.8792V7.79587C0.00229606 5.84083 1.58658 4.25654 3.54162 4.2542H6.85663C7.13865 4.05286 7.45573 3.90585 7.79163 3.8207V1.16303C7.79043 0.766011 7.99245 0.395978 8.32706 0.182286C8.66167 -0.0314049 9.08235 -0.0590432 9.44204 0.109033L11.7087 1.17153C11.9171 1.30069 12.0439 1.52844 12.0439 1.77362C12.0439 2.0188 11.9171 2.24654 11.7087 2.3757L9.20829 3.54587V3.8207C9.54436 3.90597 9.86165 4.05297 10.144 4.2542ZM13.9235 7.0875H15.4528C15.1537 6.24151 14.3554 5.67456 13.4581 5.67084H11.6264L12.4211 6.46488C12.8203 6.86231 13.3602 7.08607 13.9235 7.0875ZM3.54172 5.67084H5.37347L4.57872 6.46488C4.17955 6.86231 3.63962 7.08607 3.07634 7.0875H1.54705C1.84615 6.24151 2.64441 5.67456 3.54172 5.67084ZM7.79165 13.4625V15.5875H9.20832V13.4625C9.20832 13.0713 8.89118 12.7542 8.49998 12.7542C8.10878 12.7542 7.79165 13.0713 7.79165 13.4625ZM14.875 15.5876H10.625V13.4626C10.625 12.289 9.67365 11.3376 8.50004 11.3376C7.32644 11.3376 6.37504 12.289 6.37504 13.4626V15.5876H2.12504C1.73384 15.5876 1.41671 15.2704 1.41671 14.8792V8.50422H3.07633C4.01606 8.50653 4.91768 8.13288 5.58029 7.46652L7.49846 5.54906C8.05167 4.99602 8.94842 4.99602 9.50163 5.54906L11.4198 7.46652C12.0824 8.13288 12.984 8.50653 13.9238 8.50422H15.5834V14.8792C15.5834 15.2704 15.2662 15.5876 14.875 15.5876ZM4.25022 11.3375C4.64142 11.3375 4.95856 11.0204 4.95856 10.6292C4.95856 10.238 4.64142 9.92084 4.25022 9.92084H3.54189C3.15069 9.92084 2.83355 10.238 2.83355 10.6292C2.83355 11.0204 3.15069 11.3375 3.54189 11.3375H4.25022ZM4.95856 13.4625C4.95856 13.8537 4.64142 14.1709 4.25022 14.1709H3.54189C3.15069 14.1709 2.83355 13.8537 2.83355 13.4625C2.83355 13.0713 3.15069 12.7542 3.54189 12.7542H4.25022C4.64142 12.7542 4.95856 13.0713 4.95856 13.4625ZM13.4585 11.3375C13.8497 11.3375 14.1668 11.0204 14.1668 10.6292C14.1668 10.238 13.8497 9.92084 13.4585 9.92084H12.7502C12.359 9.92084 12.0418 10.238 12.0418 10.6292C12.0418 11.0204 12.359 11.3375 12.7502 11.3375H13.4585ZM14.1668 13.4625C14.1668 13.8537 13.8497 14.1709 13.4585 14.1709H12.7502C12.359 14.1709 12.0418 13.8537 12.0418 13.4625C12.0418 13.0713 12.359 12.7542 12.7502 12.7542H13.4585C13.8497 12.7542 14.1668 13.0713 14.1668 13.4625ZM8.50004 9.92086C9.28244 9.92086 9.91671 9.28659 9.91671 8.50419C9.91671 7.72179 9.28244 7.08752 8.50004 7.08752C7.71764 7.08752 7.08337 7.72179 7.08337 8.50419C7.08337 9.28659 7.71764 9.92086 8.50004 9.92086Z" fill="#787686"/>
</svg>
