<svg width="17" height="17" viewBox="0 0 17 17" fill="none" xmlns="http://www.w3.org/2000/svg">
<path fill-rule="evenodd" clip-rule="evenodd" d="M16.9042 2.09598L16.8511 2.24543C15.7872 5.19762 14.7666 8.00461 12.7493 10.4978V10.6253C12.7468 12.819 11.8213 14.9103 10.1995 16.3873C9.77484 16.7791 9.21893 16.9976 8.6412 17C7.38938 16.9961 6.3762 15.981 6.37464 14.7292V13.9139C5.85199 13.7454 5.37622 13.4564 4.98567 13.0704L4.95805 13.0434L3.33392 14.6676C3.056 14.936 2.61423 14.9322 2.34101 14.6589C2.0678 14.3857 2.06396 13.944 2.33238 13.666L3.95651 12.0419L3.92889 12.015C3.54256 11.624 3.25295 11.1481 3.08318 10.6253H2.38196C1.06718 10.6241 0.00151613 9.5588 -4.57764e-05 8.24401C0.00120712 7.62731 0.239007 7.03458 0.664339 6.58801C2.16125 5.05067 4.22942 4.20411 6.37464 4.25063H6.50214C8.99535 2.2341 11.8002 1.21344 14.751 0.150287L14.904 0.0957477C15.4741 -0.11384 16.114 0.0269451 16.5435 0.456447C16.973 0.885949 17.1138 1.52588 16.9042 2.09598ZM12.7494 4.95894C12.7494 5.35012 12.4323 5.66724 12.0412 5.66724C11.65 5.66724 11.3329 5.35012 11.3329 4.95894C11.3329 4.56776 11.65 4.25064 12.0412 4.25064C12.4323 4.25064 12.7494 4.56776 12.7494 4.95894ZM9.91601 6.37552C9.52483 6.37552 9.20772 6.69264 9.20772 7.08382C9.20772 7.475 9.52483 7.79212 9.91601 7.79212C10.3072 7.79212 10.6243 7.475 10.6243 7.08382C10.6243 6.69264 10.3072 6.37552 9.91601 6.37552ZM7.08316 9.20873C7.08316 8.81754 7.40027 8.50043 7.79146 8.50043C8.18264 8.50043 8.49975 8.81754 8.49975 9.20873C8.49975 9.59991 8.18264 9.91702 7.79146 9.91702C7.40027 9.91702 7.08316 9.59991 7.08316 9.20873ZM2.90411 9.20872H2.38209C1.84935 9.20833 1.41746 8.77677 1.41668 8.24402C1.41936 7.98753 1.52084 7.74196 1.7 7.55839C2.54213 6.68489 3.62836 6.08599 4.81651 5.84006C4.35828 6.35935 3.93046 6.9047 3.5352 7.47339C3.17508 7.98585 2.95732 8.58465 2.90411 9.20872ZM11.1202 12.2204C10.6122 12.6651 10.0797 13.0811 9.52514 13.4663C9.01226 13.8229 8.41392 14.037 7.79122 14.0868V14.7292C7.792 15.2009 8.17442 15.583 8.64614 15.5834C8.87074 15.5801 9.08598 15.4929 9.24961 15.339C10.1627 14.5032 10.8127 13.4195 11.1202 12.2204ZM15.3842 1.42806C15.4375 1.40535 15.4993 1.41902 15.5379 1.46206C15.5817 1.50121 15.5955 1.56405 15.5719 1.61789L15.5181 1.76734C14.2814 5.19975 13.2119 8.1654 10.662 10.7153C10.0591 11.3006 9.40719 11.8333 8.71349 12.3075C7.86815 12.9022 6.71753 12.8023 5.98725 12.071L4.93047 11.0156C4.19853 10.2849 4.09896 9.1334 4.69461 8.28793C5.16894 7.59385 5.70162 6.9415 6.28686 6.33799C8.83815 3.7874 11.801 2.71929 15.232 1.48331L15.3842 1.42806Z" fill="#787686"/>
</svg>
